<svg width="63" height="56" viewBox="0 0 63 56" fill="none" xmlns="http://www.w3.org/2000/svg">
<g filter="url(#filter0_d_36_137)">
<mask id="path-1-inside-1_36_137" fill="white">
<path d="M27.634 0.500001C28.0189 -0.166666 28.9811 -0.166667 29.366 0.499999L56.6458 47.75C57.0307 48.4167 56.5496 49.25 55.7798 49.25H1.22018C0.450382 49.25 -0.030745 48.4167 0.354155 47.75L27.634 0.500001Z"/>
<path d="M45.25 32.5C45.25 41.7508 37.7508 49.25 28.5 49.25C19.2492 49.25 11.75 41.7508 11.75 32.5C11.75 23.2492 19.2492 15.75 28.5 15.75C37.7508 15.75 45.25 23.2492 45.25 32.5Z"/>
</mask>
<path d="M27.634 0.500001C28.0189 -0.166666 28.9811 -0.166667 29.366 0.499999L56.6458 47.75C57.0307 48.4167 56.5496 49.25 55.7798 49.25H1.22018C0.450382 49.25 -0.030745 48.4167 0.354155 47.75L27.634 0.500001Z" fill="#A48B35" fill-opacity="0.36" shape-rendering="crispEdges"/>
<path d="M29 1.23333C29 0.95719 28.7761 0.733333 28.5 0.733333C28.2238 0.733333 28 0.95719 28 1.23333H29ZM28 48.1333C28 48.4095 28.2238 48.6333 28.5 48.6333C28.7761 48.6333 29 48.4095 29 48.1333H28ZM28 1.23333V48.1333H29V1.23333H28ZM0.354155 47.75L-0.51187 47.25L0.354155 47.75ZM56.6458 47.75L57.5118 47.25L56.6458 47.75ZM29.366 0.499999L30.232 -7.53728e-07L30.232 -7.66633e-07L29.366 0.499999ZM27.634 0.500001L26.7679 8.59153e-07L27.634 0.500001ZM28.5 0.999999L55.7798 48.25L57.5118 47.25L30.232 -7.4924e-07L28.5 0.999999ZM55.7798 48.25H1.22018V50.25H55.7798V48.25ZM1.22018 48.25L28.5 1L26.7679 8.59153e-07L-0.51187 47.25L1.22018 48.25ZM1.22018 48.25L1.22018 48.25L-0.51187 47.25C-1.28167 48.5833 -0.319415 50.25 1.22018 50.25V48.25ZM55.7798 48.25L55.7798 48.25V50.25C57.3194 50.25 58.2816 48.5833 57.5118 47.25L55.7798 48.25ZM30.232 -7.66633e-07C29.4622 -1.33334 27.5377 -1.33333 26.7679 8.42693e-07L28.5 1L28.5 0.999999L30.232 -7.66633e-07ZM44.25 32.5C44.25 41.1985 37.1985 48.25 28.5 48.25V50.25C38.303 50.25 46.25 42.3031 46.25 32.5H44.25ZM28.5 48.25C19.8015 48.25 12.75 41.1985 12.75 32.5H10.75C10.75 42.3031 18.6969 50.25 28.5 50.25V48.25ZM12.75 32.5C12.75 23.8015 19.8015 16.75 28.5 16.75V14.75C18.6969 14.75 10.75 22.6969 10.75 32.5H12.75ZM28.5 16.75C37.1985 16.75 44.25 23.8015 44.25 32.5H46.25C46.25 22.6969 38.303 14.75 28.5 14.75V16.75Z" fill="#FFDE68" mask="url(#path-1-inside-1_36_137)"/>
</g>
<defs>
<filter id="filter0_d_36_137" x="0.218689" y="0" width="62.5626" height="55.25" filterUnits="userSpaceOnUse" color-interpolation-filters="sRGB">
<feFlood flood-opacity="0" result="BackgroundImageFix"/>
<feColorMatrix in="SourceAlpha" type="matrix" values="0 0 0 0 0 0 0 0 0 0 0 0 0 0 0 0 0 0 127 0" result="hardAlpha"/>
<feOffset dx="4" dy="4"/>
<feGaussianBlur stdDeviation="1"/>
<feComposite in2="hardAlpha" operator="out"/>
<feColorMatrix type="matrix" values="0 0 0 0 0 0 0 0 0 0 0 0 0 0 0 0 0 0 0.75 0"/>
<feBlend mode="normal" in2="BackgroundImageFix" result="effect1_dropShadow_36_137"/>
<feBlend mode="normal" in="SourceGraphic" in2="effect1_dropShadow_36_137" result="shape"/>
</filter>
</defs>
</svg>
