<svg width="28" height="34" viewBox="0 0 28 34" fill="none" xmlns="http://www.w3.org/2000/svg">
<g filter="url(#filter0_i_32_136)">
<path d="M26.5324 1.55859C26.5324 1.55859 22.0182 7.14688 16.6012 10.5858C9.6121 15.0227 0.801453 17.0338 0.801453 17.0338C0.801453 17.0338 10.7668 19.778 16.6012 23.4819C22.0182 26.9208 26.5324 32.939 26.5324 32.939C26.5324 32.939 22.0182 26.4909 22.0182 17.0338C22.0182 7.57675 26.5324 1.55859 26.5324 1.55859Z" fill="#FFDE68"/>
</g>
<path d="M26.5324 1.55859C26.5324 1.55859 22.0182 7.14688 16.6012 10.5858C9.6121 15.0227 0.801453 17.0338 0.801453 17.0338C0.801453 17.0338 10.7668 19.778 16.6012 23.4819C22.0182 26.9208 26.5324 32.939 26.5324 32.939C26.5324 32.939 22.0182 26.4909 22.0182 17.0338C22.0182 7.57675 26.5324 1.55859 26.5324 1.55859Z" stroke="#FFDE68" stroke-width="2" stroke-linecap="round"/>
<defs>
<filter id="filter0_i_32_136" x="0.535889" y="0.930054" width="30.8165" height="36.6091" filterUnits="userSpaceOnUse" color-interpolation-filters="sRGB">
<feFlood flood-opacity="0" result="BackgroundImageFix"/>
<feBlend mode="normal" in="SourceGraphic" in2="BackgroundImageFix" result="shape"/>
<feColorMatrix in="SourceAlpha" type="matrix" values="0 0 0 0 0 0 0 0 0 0 0 0 0 0 0 0 0 0 127 0" result="hardAlpha"/>
<feOffset dx="9" dy="4"/>
<feGaussianBlur stdDeviation="2"/>
<feComposite in2="hardAlpha" operator="arithmetic" k2="-1" k3="1"/>
<feColorMatrix type="matrix" values="0 0 0 0 0 0 0 0 0 0 0 0 0 0 0 0 0 0 0.25 0"/>
<feBlend mode="normal" in2="shape" result="effect1_innerShadow_32_136"/>
</filter>
</defs>
</svg>
