<svg width="295" height="260" viewBox="0 0 295 260" fill="none" xmlns="http://www.w3.org/2000/svg">
<mask id="path-1-outside-1_28_164" maskUnits="userSpaceOnUse" x="0" y="0" width="295" height="260" fill="black">
<rect fill="white" width="295" height="260"/>
<path d="M147.61 4L291.219 100.392L236.365 256.358H58.854L4 100.392L147.61 4Z"/>
</mask>
<path d="M147.61 4L291.219 100.392L236.365 256.358H58.854L4 100.392L147.61 4Z" fill="#201639"/>
<path d="M147.61 4L149.281 1.50908L147.61 0.386871L145.938 1.50908L147.61 4ZM291.219 100.392L294.049 101.387L294.82 99.1959L292.891 97.9012L291.219 100.392ZM236.365 256.358V259.358H238.49L239.195 257.353L236.365 256.358ZM58.854 256.358L56.0239 257.353L56.7289 259.358H58.854V256.358ZM4 100.392L2.32807 97.9012L0.399152 99.1959L1.16993 101.387L4 100.392ZM145.938 6.49092L289.547 102.883L292.891 97.9012L149.281 1.50908L145.938 6.49092ZM288.389 99.3968L233.535 255.363L239.195 257.353L294.049 101.387L288.389 99.3968ZM236.365 253.358H58.854V259.358H236.365V253.358ZM61.684 255.363L6.83007 99.3968L1.16993 101.387L56.0239 257.353L61.684 255.363ZM5.67193 102.883L149.281 6.49092L145.938 1.50908L2.32807 97.9012L5.67193 102.883Z" fill="#FFDE68" mask="url(#path-1-outside-1_28_164)"/>
</svg>
