<svg width="296" height="260" viewBox="0 0 296 260" fill="none" xmlns="http://www.w3.org/2000/svg">
<mask id="path-1-outside-1_26_163" maskUnits="userSpaceOnUse" x="0.390472" y="0" width="295" height="260" fill="black">
<rect fill="white" x="0.390472" width="295" height="260"/>
<path fill-rule="evenodd" clip-rule="evenodd" d="M291.61 100.392L148 4L4.39047 100.392L59.2444 256.358H236.756L291.61 100.392ZM121.288 54.5459C136.61 48.9312 148 37 148 37C148 37 159.39 48.9312 174.712 54.5459C190.034 60.1606 207.976 63.2353 211 63.5696L199.912 228H96.088L85 63.5696C88.024 63.2353 105.966 60.1606 121.288 54.5459Z"/>
</mask>
<path fill-rule="evenodd" clip-rule="evenodd" d="M291.61 100.392L148 4L4.39047 100.392L59.2444 256.358H236.756L291.61 100.392ZM121.288 54.5459C136.61 48.9312 148 37 148 37C148 37 159.39 48.9312 174.712 54.5459C190.034 60.1606 207.976 63.2353 211 63.5696L199.912 228H96.088L85 63.5696C88.024 63.2353 105.966 60.1606 121.288 54.5459Z" fill="#201639"/>
<path d="M148 4L149.672 1.50908L148 0.386871L146.328 1.50908L148 4ZM291.61 100.392L294.44 101.387L295.21 99.1959L293.281 97.9012L291.61 100.392ZM4.39047 100.392L2.71855 97.9012L0.789624 99.1959L1.56041 101.387L4.39047 100.392ZM59.2444 256.358L56.4144 257.353L57.1194 259.358H59.2444V256.358ZM236.756 256.358V259.358H238.881L239.586 257.353L236.756 256.358ZM148 37L150.17 34.9284L148 32.6555L145.83 34.9284L148 37ZM121.288 54.5459L120.256 51.7291L120.256 51.7291L121.288 54.5459ZM174.712 54.5459L175.744 51.7291L175.744 51.7291L174.712 54.5459ZM211 63.5696L213.993 63.7714L214.187 60.9035L211.33 60.5877L211 63.5696ZM199.912 228V231H202.717L202.905 228.202L199.912 228ZM96.088 228L93.0948 228.202L93.2835 231H96.088V228ZM85 63.5696L84.6704 60.5877L81.8134 60.9035L82.0068 63.7714L85 63.5696ZM146.328 6.49092L289.938 102.883L293.281 97.9012L149.672 1.50908L146.328 6.49092ZM6.0624 102.883L149.672 6.49092L146.328 1.50908L2.71855 97.9012L6.0624 102.883ZM62.0745 255.363L7.22054 99.3968L1.56041 101.387L56.4144 257.353L62.0745 255.363ZM236.756 253.358H59.2444V259.358H236.756V253.358ZM288.779 99.3968L233.926 255.363L239.586 257.353L294.44 101.387L288.779 99.3968ZM148 37C145.83 34.9284 145.83 34.928 145.831 34.9276C145.831 34.9276 145.831 34.9272 145.831 34.9271C145.832 34.9269 145.832 34.9268 145.832 34.9269C145.831 34.9271 145.83 34.928 145.829 34.9296C145.826 34.9329 145.82 34.939 145.811 34.9478C145.794 34.9655 145.766 34.9942 145.728 35.0333C145.651 35.1116 145.532 35.2318 145.372 35.3893C145.053 35.7045 144.573 36.1689 143.946 36.7472C142.692 37.9049 140.856 39.5139 138.554 41.2946C133.93 44.8717 127.525 49.0651 120.256 51.7291L122.32 57.3627C130.372 54.412 137.323 49.8325 142.225 46.0403C144.686 44.1363 146.655 42.4117 148.015 41.1567C148.696 40.5288 149.225 40.0172 149.589 39.658C149.771 39.4783 149.911 39.3366 150.009 39.2374C150.057 39.1878 150.095 39.1488 150.122 39.121C150.136 39.1071 150.147 39.096 150.154 39.0877C150.158 39.0836 150.162 39.0802 150.164 39.0775C150.166 39.0761 150.167 39.075 150.168 39.074C150.168 39.0735 150.169 39.0729 150.169 39.0726C150.169 39.0721 150.17 39.0716 148 37ZM175.744 51.7291C168.475 49.0651 162.07 44.8717 157.446 41.2946C155.144 39.5139 153.308 37.9049 152.054 36.7472C151.427 36.1689 150.947 35.7045 150.628 35.3893C150.468 35.2318 150.349 35.1116 150.272 35.0333C150.234 34.9942 150.206 34.9655 150.189 34.9478C150.18 34.939 150.174 34.9329 150.171 34.9296C150.17 34.928 150.169 34.9271 150.168 34.9269C150.168 34.9268 150.168 34.9269 150.169 34.9271C150.169 34.9272 150.169 34.9276 150.169 34.9276C150.17 34.928 150.17 34.9284 148 37C145.83 39.0716 145.831 39.0721 145.831 39.0726C145.831 39.0729 145.832 39.0735 145.832 39.074C145.833 39.075 145.834 39.0761 145.836 39.0775C145.838 39.0802 145.842 39.0836 145.846 39.0877C145.853 39.096 145.864 39.1071 145.878 39.121C145.905 39.1488 145.943 39.1878 145.991 39.2374C146.089 39.3366 146.229 39.4783 146.411 39.658C146.775 40.0172 147.304 40.5288 147.985 41.1567C149.345 42.4117 151.314 44.1363 153.775 46.0403C158.677 49.8325 165.628 54.412 173.68 57.3627L175.744 51.7291ZM211.33 60.5877C208.499 60.2749 190.799 57.246 175.744 51.7291L173.68 57.3627C189.268 63.0753 207.453 66.1958 210.67 66.5514L211.33 60.5877ZM202.905 228.202L213.993 63.7714L208.007 63.3677L196.919 227.798L202.905 228.202ZM96.088 231H199.912V225H96.088V231ZM82.0068 63.7714L93.0948 228.202L99.0812 227.798L87.9932 63.3677L82.0068 63.7714ZM120.256 51.7291C105.201 57.246 87.5012 60.2749 84.6704 60.5877L85.3296 66.5514C88.5468 66.1958 106.732 63.0753 122.32 57.3627L120.256 51.7291Z" fill="#FFDE68" mask="url(#path-1-outside-1_26_163)"/>
</svg>
